<svg width="100%" height="100%" id="svg" viewBox="0 0 1440 590" xmlns="http://www.w3.org/2000/svg" class="transition duration-300 ease-in-out delay-150"><defs><linearGradient id="gradient" x1="0%" y1="50%" x2="100%" y2="50%"><stop offset="5%" stop-color="#b2e1c6"></stop><stop offset="95%" stop-color="#58d68d"></stop></linearGradient></defs><path d="M 0,600 C 0,600 0,150 0,150 C 93.24615384615385,173.36410256410255 186.4923076923077,196.72820512820513 254,198 C 321.5076923076923,199.27179487179487 363.276923076923,178.45128205128208 440,163 C 516.723076923077,147.54871794871792 628.4,137.46666666666664 711,151 C 793.6,164.53333333333336 847.123076923077,201.6820512820513 918,197 C 988.876923076923,192.3179487179487 1077.1076923076923,145.8051282051282 1167,131 C 1256.8923076923077,116.1948717948718 1348.4461538461537,133.0974358974359 1440,150 C 1440,150 1440,600 1440,600 Z" stroke="none" stroke-width="0" fill="url(#gradient)" fill-opacity="0.4" class="transition-all duration-300 ease-in-out delay-150 path-0"></path><defs><linearGradient id="gradient" x1="0%" y1="50%" x2="100%" y2="50%"><stop offset="5%" stop-color="#b2e1c6"></stop><stop offset="95%" stop-color="#58d68d"></stop></linearGradient></defs><path d="M 0,600 C 0,600 0,300 0,300 C 89.24615384615385,270.4230769230769 178.4923076923077,240.84615384615387 251,255 C 323.5076923076923,269.15384615384613 379.276923076923,327.03846153846155 469,330 C 558.723076923077,332.96153846153845 682.4000000000001,281 758,272 C 833.5999999999999,263 861.1230769230767,296.96153846153845 921,301 C 980.8769230769233,305.03846153846155 1073.1076923076923,279.15384615384613 1165,274 C 1256.8923076923077,268.84615384615387 1348.4461538461537,284.4230769230769 1440,300 C 1440,300 1440,600 1440,600 Z" stroke="none" stroke-width="0" fill="url(#gradient)" fill-opacity="0.53" class="transition-all duration-300 ease-in-out delay-150 path-1"></path><defs><linearGradient id="gradient" x1="0%" y1="50%" x2="100%" y2="50%"><stop offset="5%" stop-color="#b2e1c6"></stop><stop offset="95%" stop-color="#58d68d"></stop></linearGradient></defs><path d="M 0,600 C 0,600 0,450 0,450 C 99.74358974358975,435.7205128205128 199.4871794871795,421.44102564102565 274,432 C 348.5128205128205,442.55897435897435 397.7948717948718,477.9564102564102 468,481 C 538.2051282051282,484.0435897435898 629.3333333333333,454.73333333333335 715,435 C 800.6666666666667,415.26666666666665 880.8717948717949,405.11025641025645 959,411 C 1037.128205128205,416.88974358974355 1113.179487179487,438.825641025641 1193,448 C 1272.820512820513,457.174358974359 1356.4102564102564,453.58717948717947 1440,450 C 1440,450 1440,600 1440,600 Z" stroke="none" stroke-width="0" fill="url(#gradient)" fill-opacity="1" class="transition-all duration-300 ease-in-out delay-150 path-2"></path></svg>